<?xml version="1.0" encoding="UTF-8" standalone="no"?>
<svg
   version="1.0"
   width="709.000000pt"
   height="709.000000pt"
   viewBox="0 0 709.000000 709.000000"
   preserveAspectRatio="xMidYMid meet"
   id="svg136"
   sodipodi:docname="logo-resmedicae_colorized.svg"
   inkscape:version="1.2.2 (b0a84865, 2022-12-01)"
   xmlns:inkscape="http://www.inkscape.org/namespaces/inkscape"
   xmlns:sodipodi="http://sodipodi.sourceforge.net/DTD/sodipodi-0.dtd"
   xmlns="http://www.w3.org/2000/svg"
   xmlns:svg="http://www.w3.org/2000/svg">
  <defs
     id="defs140" />
  <sodipodi:namedview
     id="namedview138"
     pagecolor="#ffffff"
     bordercolor="#000000"
     borderopacity="0.25"
     inkscape:showpageshadow="2"
     inkscape:pageopacity="0.0"
     inkscape:pagecheckerboard="0"
     inkscape:deskcolor="#d1d1d1"
     inkscape:document-units="pt"
     showgrid="false"
     inkscape:zoom="0.43103044"
     inkscape:cx="-156.60147"
     inkscape:cy="447.7642"
     inkscape:window-width="1440"
     inkscape:window-height="900"
     inkscape:window-x="0"
     inkscape:window-y="0"
     inkscape:window-maximized="0"
     inkscape:current-layer="g134" />
  <g
     transform="translate(0.000000,709.000000) scale(0.100000,-0.100000)"
     fill="#000000"
     stroke="none"
     id="g134">
    <path
       d="M2563 6588 c-295 -397 -445 -748 -484 -1128 -24 -236 19 -499 113 -698 16 -34 26 -66 23 -72 -3 -6 -180 -9 -452 -10 -429 0 -447 -1 -482 -21 -20 -11 -48 -36 -61 -56 l-25 -37 -3 -975 c-2 -691 0 -987 8 -1014 13 -45 43 -82 85 -105 27 -15 103 -18 720 -22 l690 -5 5 -696 5 -696 29 -37 c58 -76 54 -76 569 -76 251 0 457 -3 457 -6 0 -20 -82 -118 -194 -230 -124 -125 -263 -237 -368 -297 -87 -50 -69 -45 190 52 72 28 120 47 260 105 597 248 993 558 1122 880 55 136 65 189 64 346 0 208 -43 376 -159 615 -136 283 -369 616 -677 968 -85 97 -94 107 -314 343 -442 474 -721 863 -930 1299 -173 360 -257 693 -256 1015 0 227 37 418 111 583 17 37 28 67 26 67 -2 0 -34 -42 -72 -92z m-428 -2099 c83 -23 144 -116 131 -203 -18 -118 -143 -187 -253 -141 -50 21 -72 42 -94 90 -45 98 4 214 108 250 47 17 58 18 108 4z m381 -540 c95 -45 141 -177 95 -274 -41 -86 -107 -128 -202 -127 -157 0 -256 166 -184 308 55 109 175 147 291 93z m497 -432 c63 -26 130 -102 152 -174 41 -129 -14 -271 -132 -340 -53 -31 -159 -42 -225 -24 -146 41 -237 207 -194 353 51 175 228 258 399 185z m473 -661 c206 -96 137 -406 -91 -406 -128 0 -224 106 -213 235 6 75 45 131 117 168 68 34 119 35 187 3z m321 -511 c50 -21 72 -42 94 -90 57 -123 -27 -258 -161 -258 -89 0 -157 50 -180 131 -15 55 -13 73 16 130 45 90 139 125 231 87z m118 -535 c52 -49 55 -131 7 -183 -52 -55 -133 -54 -188 4 -53 56 -34 159 37 197 36 19 115 10 144 -18z m-144 -389 c46 -46 36 -135 -18 -160 -75 -34 -153 11 -153 89 0 58 42 100 100 100 33 0 48 -6 71 -29z m-169 -298 c24 -21 23 -58 -2 -83 -24 -24 -57 -26 -82 -3 -20 18 -24 73 -6 91 17 17 68 15 90 -5z"
       id="path122"
       style="fill:#a61449;fill-opacity:1" />
    <path
       d="M2789 6567 c-91 -151 -136 -363 -126 -592 18 -403 172 -806 495 -1300 79 -122 255 -360 346 -469 87 -104 264 -304 327 -371 262 -275 523 -595 686 -840 247 -371 388 -678 455 -989 28 -135 35 -366 13 -481 -28 -151 -84 -284 -152 -365 -61 -73 80 5 158 87 187 197 267 507 257 989 l-5 213 438 3 437 3 39 31 c79 63 73 -19 73 1078 0 974 0 980 -21 1023 -14 29 -35 52 -63 68 l-43 25 -676 0 c-371 0 -682 3 -691 6 -14 6 -16 76 -16 693 l0 686 -23 40 c-13 22 -40 49 -62 62 l-40 23 -907 0 c-499 0 -909 3 -911 8 -6 9 10 191 28 312 7 52 13 96 11 97 -1 1 -13 -17 -27 -40z m1621 -603 c54 -26 104 -74 133 -128 19 -35 22 -57 22 -156 0 -105 -2 -119 -27 -165 -31 -59 -60 -89 -107 -108 l-34 -14 46 -7 c25 -4 57 -16 71 -27 53 -42 56 -57 56 -334 l0 -255 -135 0 -135 0 0 223 c0 239 -3 254 -53 291 -23 17 -46 22 -118 24 l-89 4 0 -271 0 -271 -135 0 -135 0 0 611 0 610 298 -3 c278 -3 300 -4 342 -24z m682 -1855 l284 -290 287 290 288 291 64 0 65 0 0 -610 0 -610 -135 0 -135 0 0 368 0 367 -229 -230 c-126 -126 -233 -229 -237 -229 -4 1 -110 104 -235 230 l-229 229 0 -367 0 -368 -70 0 -70 0 0 603 c0 332 3 607 7 610 3 4 19 7 34 7 22 0 76 -50 311 -291z"
       id="path124"
       style="fill:#144e73;fill-opacity:1" />
    <path
       d="M4040 5651 l0 -201 91 0 91 0 39 39 39 39 0 119 0 120 -34 39 -34 39 -96 3 -96 4 0 -201z"
       id="path126"
       style="fill:#144e73;fill-opacity:1" />
    <path
       d="M1892 5904 c-43 -30 -18 -104 36 -104 22 0 62 35 62 56 0 19 -40 64 -59 64 -9 0 -27 -7 -39 -16z"
       id="path128"
       style="fill:#a61449;fill-opacity:1" />
    <path
       d="M1762 5525 c-54 -45 -45 -128 18 -160 67 -35 142 9 144 84 2 87 -95 132 -162 76z"
       id="path130"
       style="fill:#a61449;fill-opacity:1" />
    <path
       d="M1809 5057 c-40 -27 -59 -60 -59 -105 0 -68 49 -121 114 -124 140 -5 188 176 63 235 -47 23 -78 21 -118 -6z"
       id="path132"
       style="fill:#a61449;fill-opacity:1" />
  </g>
</svg>
